<svg width="34" height="28" viewBox="0 0 34 28" fill="none" xmlns="http://www.w3.org/2000/svg">
<path d="M17 3.22302C16.175 2.21583 15.1094 1.42619 13.8031 0.8541C12.4969 0.2847 11.0875 0 9.575 0C7.1 0 4.96875 0.872904 3.18125 2.61871C1.39375 4.36451 0.5 6.44604 0.5 8.86331C0.5 10.9448 1.05 12.8585 2.15 14.6043C3.25 16.3501 5.79375 19.1031 9.78125 22.8633L14.2156 26.8921C14.9719 27.6307 15.9 28 17 28C18.1 28 19.0281 27.6307 19.7844 26.8921L24.1156 22.964C28.0344 19.271 30.5781 16.5005 31.7469 14.6527C32.9156 12.8075 33.5 10.8777 33.5 8.86331C33.5 6.44604 32.6063 4.36451 30.8188 2.61871C29.0313 0.872904 26.9 0 24.425 0C22.9813 0 21.5898 0.2847 20.2505 0.8541C18.9085 1.42619 17.825 2.21583 17 3.22302Z" fill="#626F47"/>
</svg>
