<svg width="33" height="28" viewBox="0 0 33 28" fill="none" xmlns="http://www.w3.org/2000/svg">
<path d="M23.9248 1C25.9977 1 27.7811 1.67557 29.3164 3.0498L29.6201 3.33398C31.2222 4.89871 32 6.72533 32 8.86328C32 10.5593 31.5418 12.2002 30.5977 13.7988L30.4023 14.1172L30.4014 14.1182C29.3081 15.8466 26.8525 18.5378 22.9355 22.2295L18.6123 26.1514L18.5986 26.1641L18.5859 26.1768C18.0248 26.7248 17.3507 27 16.5 27C15.6493 27 14.9752 26.7248 14.4141 26.1768L14.4014 26.1641L14.3877 26.1523L9.9541 22.123C6.2164 18.5977 3.83099 16.0314 2.70508 14.3877L2.49609 14.0713C1.4976 12.4866 1 10.7579 1 8.86328L1.00879 8.46582C1.09407 6.62924 1.77727 5.02867 3.08887 3.63086L3.37988 3.33398C4.98256 1.7687 6.86411 1 9.0752 1C10.4581 1.00002 11.7302 1.25885 12.9023 1.76953V1.77051C14.0777 2.28534 15.011 2.98294 15.7266 3.85645L16.5 4.80078L17.2734 3.85645C17.9844 2.98851 18.931 2.29095 20.1426 1.77441L20.1416 1.77344C21.358 1.2563 22.6168 1.00003 23.9248 1Z" stroke="#626F47" stroke-width="2"/>
</svg>
